<svg xmlns="http://www.w3.org/2000/svg" viewBox="0 0 20 20" id="x"><path fill="#000" d="M15 0C17.7614 0 20 2.23858 20 5V15C20 17.7614 17.7614 20 15 20H5C2.23858 20 0 17.7614 0 15V5C0 2.23858 2.23858 0 5 0H15ZM3.77734 3C3.63312 3.00008 3.49185 3.04042 3.36914 3.11621C3.24632 3.19211 3.14663 3.30057 3.08203 3.42969C3.01743 3.55888 2.98996 3.7038 3.00293 3.84766C3.0159 3.99137 3.06875 4.12867 3.15527 4.24414L8.16211 10.9189L3.96973 15.71C3.90258 15.7868 3.85105 15.876 3.81836 15.9727C3.78565 16.0694 3.77247 16.1725 3.7793 16.2744C3.78617 16.3762 3.81314 16.4759 3.8584 16.5674C3.90365 16.6587 3.96626 16.7405 4.04297 16.8076C4.11988 16.8749 4.20985 16.9263 4.30664 16.959C4.40338 16.9917 4.50554 17.0049 4.60742 16.998C4.70934 16.9912 4.80884 16.9642 4.90039 16.9189C4.99196 16.8736 5.07434 16.8113 5.1416 16.7344L9.11523 12.1914L12.4893 16.6885C12.5617 16.7849 12.6558 16.8631 12.7637 16.917C12.8716 16.9709 12.9907 16.999 13.1113 16.999H16.2227C16.3669 16.9989 16.5081 16.9587 16.6309 16.8828C16.7537 16.8069 16.8534 16.6985 16.918 16.5693C16.9825 16.4402 17.01 16.2952 16.9971 16.1514C16.984 16.0077 16.9313 15.8703 16.8447 15.7549L11.8379 9.08008L16.0303 4.29004C16.0974 4.21321 16.149 4.124 16.1816 4.02734C16.2143 3.93068 16.2275 3.82837 16.2207 3.72656C16.2139 3.62462 16.1869 3.52418 16.1416 3.43262C16.0963 3.34129 16.0337 3.25951 15.957 3.19238C15.8801 3.12513 15.7902 3.07372 15.6934 3.04102C15.5966 3.00836 15.4944 2.99515 15.3926 3.00195C15.2907 3.00877 15.1911 3.03578 15.0996 3.08105C15.008 3.12637 14.9257 3.18873 14.8584 3.26562L10.8848 7.80762L7.51074 3.31152C7.43829 3.21493 7.34433 3.13603 7.23633 3.08203C7.12842 3.02815 7.00929 3 6.88867 3H3.77734ZM14.667 15.4443H13.5L5.33301 4.55566H6.5L14.667 15.4443Z"></path></svg>